<?xml version="1.0" encoding="UTF-8" standalone="no"?>
<!DOCTYPE svg PUBLIC "-//W3C//DTD SVG 1.1//EN"
 "http://www.w3.org/Graphics/SVG/1.1/DTD/svg11.dtd">
<!-- Generated by graphviz version 12.2.1 (20241206.2353)
 -->
<!-- Title: FPGA_Arch Pages: 1 -->
<svg width="597pt" height="331pt"
 viewBox="0.00 0.00 597.25 331.00" xmlns="http://www.w3.org/2000/svg" xmlns:xlink="http://www.w3.org/1999/xlink">
<g id="graph0" class="graph" transform="scale(1 1) rotate(0) translate(4 327)">
<title>FPGA_Arch</title>
<polygon fill="white" stroke="none" points="-4,4 -4,-327 593.25,-327 593.25,4 -4,4"/>
<g id="clust1" class="cluster">
<title>cluster_processing</title>
<polygon fill="#e8f5e9" stroke="black" points="455,-8 455,-281 581.25,-281 581.25,-8 455,-8"/>
<text text-anchor="middle" x="518.12" y="-31.7" font-family="Times New Roman,serif" font-size="14.00">处理单元</text>
<text text-anchor="middle" x="518.12" y="-15.95" font-family="Times New Roman,serif" font-size="14.00">(32个可编程DSP)</text>
</g>
<g id="clust4" class="cluster">
<title>cluster_memory</title>
<polygon fill="#e3f2fd" stroke="black" points="225.75,-177 225.75,-315 374.75,-315 374.75,-177 225.75,-177"/>
<text text-anchor="middle" x="300.25" y="-183.45" font-family="Times New Roman,serif" font-size="14.00">存储系统</text>
</g>
<g id="clust5" class="cluster">
<title>cluster_interface</title>
<polygon fill="#fce4ec" stroke="black" points="8,-23 8,-219 142,-219 142,-23 8,-23"/>
<text text-anchor="middle" x="75" y="-29.45" font-family="Times New Roman,serif" font-size="14.00">接口标准</text>
</g>
<!-- dsp1 -->
<g id="node1" class="node">
<title>dsp1</title>
<path fill="#f0f0f0" stroke="black" d="M553.38,-219C553.38,-219 481.88,-219 481.88,-219 475.88,-219 469.88,-213 469.88,-207 469.88,-207 469.88,-195 469.88,-195 469.88,-189 475.88,-183 481.88,-183 481.88,-183 553.38,-183 553.38,-183 559.38,-183 565.38,-189 565.38,-195 565.38,-195 565.38,-207 565.38,-207 565.38,-213 559.38,-219 553.38,-219"/>
<text text-anchor="middle" x="517.62" y="-195.57" font-family="Arial" font-size="14.00">DSP Slice #1</text>
</g>
<!-- dsp2 -->
<g id="node2" class="node">
<title>dsp2</title>
<path fill="#f0f0f0" stroke="black" d="M553.38,-93C553.38,-93 481.88,-93 481.88,-93 475.88,-93 469.88,-87 469.88,-81 469.88,-81 469.88,-69 469.88,-69 469.88,-63 475.88,-57 481.88,-57 481.88,-57 553.38,-57 553.38,-57 559.38,-57 565.38,-63 565.38,-69 565.38,-69 565.38,-81 565.38,-81 565.38,-87 559.38,-93 553.38,-93"/>
<text text-anchor="middle" x="517.62" y="-69.58" font-family="Arial" font-size="14.00">DSP Slice #2</text>
</g>
<!-- dsp1&#45;&gt;dsp2 -->
<!-- ddr4 -->
<g id="node5" class="node">
<title>ddr4</title>
<path fill="#f0f0f0" stroke="black" d="M330.38,-306.75C330.38,-306.75 270.12,-306.75 270.12,-306.75 264.12,-306.75 258.12,-300.75 258.12,-294.75 258.12,-294.75 258.12,-279.25 258.12,-279.25 258.12,-273.25 264.12,-267.25 270.12,-267.25 270.12,-267.25 330.38,-267.25 330.38,-267.25 336.38,-267.25 342.38,-273.25 342.38,-279.25 342.38,-279.25 342.38,-294.75 342.38,-294.75 342.38,-300.75 336.38,-306.75 330.38,-306.75"/>
<text text-anchor="middle" x="300.25" y="-289.45" font-family="Arial" font-size="14.00">8GB DDR4</text>
<text text-anchor="middle" x="300.25" y="-273.7" font-family="Arial" font-size="14.00">64&#45;bit总线</text>
</g>
<!-- dsp1&#45;&gt;ddr4 -->
<g id="edge4" class="edge">
<title>dsp1&#45;&gt;ddr4</title>
<path fill="none" stroke="#606060" d="M469.66,-218.37C464.47,-221.21 459.46,-224.41 455,-228 450.29,-231.79 451.9,-235.46 447,-239 423.45,-255.97 412.33,-249.71 384.75,-258.75 374.07,-262.25 362.65,-266.07 351.78,-269.73"/>
<polygon fill="#606060" stroke="#606060" points="350.94,-267.06 344.25,-272.28 352.73,-272.37 350.94,-267.06"/>
<text text-anchor="middle" x="415.88" y="-262.7" font-family="Times New Roman,serif" font-size="14.00">AXI4总线</text>
</g>
<!-- dsp3 -->
<g id="node3" class="node">
<title>dsp3</title>
<path fill="#f0f0f0" stroke="black" d="M553.38,-165C553.38,-165 481.88,-165 481.88,-165 475.88,-165 469.88,-159 469.88,-153 469.88,-153 469.88,-141 469.88,-141 469.88,-135 475.88,-129 481.88,-129 481.88,-129 553.38,-129 553.38,-129 559.38,-129 565.38,-135 565.38,-141 565.38,-141 565.38,-153 565.38,-153 565.38,-159 559.38,-165 553.38,-165"/>
<text text-anchor="middle" x="517.62" y="-141.57" font-family="Arial" font-size="14.00">DSP Slice #3</text>
</g>
<!-- dsp2&#45;&gt;dsp3 -->
<!-- dsp32 -->
<g id="node4" class="node">
<title>dsp32</title>
<path fill="#f0f0f0" stroke="black" d="M557.12,-273C557.12,-273 478.12,-273 478.12,-273 472.12,-273 466.12,-267 466.12,-261 466.12,-261 466.12,-249 466.12,-249 466.12,-243 472.12,-237 478.12,-237 478.12,-237 557.12,-237 557.12,-237 563.12,-237 569.12,-243 569.12,-249 569.12,-249 569.12,-261 569.12,-261 569.12,-267 563.12,-273 557.12,-273"/>
<text text-anchor="middle" x="517.62" y="-249.57" font-family="Arial" font-size="14.00">DSP Slice #32</text>
</g>
<!-- dsp3&#45;&gt;dsp32 -->
<!-- ddr4&#45;&gt;dsp32 -->
<g id="edge5" class="edge">
<title>ddr4&#45;&gt;dsp32</title>
<path fill="none" stroke="#606060" d="M352.06,-288.23C380.28,-288 415.86,-286.19 447,-280 452.16,-278.97 457.46,-277.63 462.71,-276.11"/>
<polygon fill="#606060" stroke="#606060" points="352.3,-285.43 344.31,-288.25 352.32,-291.03 352.3,-285.43"/>
<polygon fill="#606060" stroke="#606060" points="463.23,-278.88 470.04,-273.84 461.57,-273.53 463.23,-278.88"/>
</g>
<!-- qspi -->
<g id="node6" class="node">
<title>qspi</title>
<path fill="#f0f0f0" stroke="black" d="M354.75,-248.75C354.75,-248.75 245.75,-248.75 245.75,-248.75 239.75,-248.75 233.75,-242.75 233.75,-236.75 233.75,-236.75 233.75,-221.25 233.75,-221.25 233.75,-215.25 239.75,-209.25 245.75,-209.25 245.75,-209.25 354.75,-209.25 354.75,-209.25 360.75,-209.25 366.75,-215.25 366.75,-221.25 366.75,-221.25 366.75,-236.75 366.75,-236.75 366.75,-242.75 360.75,-248.75 354.75,-248.75"/>
<text text-anchor="middle" x="300.25" y="-231.45" font-family="Arial" font-size="14.00">256MB QSPI Flash</text>
<text text-anchor="middle" x="300.25" y="-215.7" font-family="Arial" font-size="14.00">X4 IO模式</text>
</g>
<!-- qspi&#45;&gt;dsp1 -->
<g id="edge6" class="edge">
<title>qspi&#45;&gt;dsp1</title>
<path fill="none" stroke="#606060" d="M367.04,-220.45C396.83,-216.57 431.68,-212.04 460.25,-208.33"/>
<polygon fill="#606060" stroke="#606060" points="460.6,-211.11 468.18,-207.3 459.88,-205.55 460.6,-211.11"/>
<text text-anchor="middle" x="415.88" y="-221.46" font-family="Times New Roman,serif" font-size="14.00">SPI控制</text>
</g>
<!-- pcie -->
<g id="node7" class="node">
<title>pcie</title>
<path fill="#f0f0f0" stroke="black" d="M106.25,-210.75C106.25,-210.75 43.75,-210.75 43.75,-210.75 37.75,-210.75 31.75,-204.75 31.75,-198.75 31.75,-198.75 31.75,-183.25 31.75,-183.25 31.75,-177.25 37.75,-171.25 43.75,-171.25 43.75,-171.25 106.25,-171.25 106.25,-171.25 112.25,-171.25 118.25,-177.25 118.25,-183.25 118.25,-183.25 118.25,-198.75 118.25,-198.75 118.25,-204.75 112.25,-210.75 106.25,-210.75"/>
<text text-anchor="middle" x="75" y="-193.45" font-family="Arial" font-size="14.00">PCIe 3.0 x8</text>
<text text-anchor="middle" x="75" y="-177.7" font-family="Arial" font-size="14.00">8GT/s</text>
</g>
<!-- pcie&#45;&gt;ddr4 -->
<g id="edge7" class="edge">
<title>pcie&#45;&gt;ddr4</title>
<path fill="none" stroke="#606060" d="M118.7,-210.72C148.54,-224.35 189.39,-242.7 225.75,-258 233.28,-261.17 241.29,-264.43 249.14,-267.58"/>
<polygon fill="#606060" stroke="#606060" points="248.04,-270.15 256.51,-270.51 250.11,-264.95 248.04,-270.15"/>
<text text-anchor="middle" x="183.88" y="-256.76" font-family="Times New Roman,serif" font-size="14.00">DMA通道</text>
</g>
<!-- hdmi -->
<g id="node8" class="node">
<title>hdmi</title>
<path fill="#f0f0f0" stroke="black" d="M99.88,-94.75C99.88,-94.75 50.12,-94.75 50.12,-94.75 44.12,-94.75 38.12,-88.75 38.12,-82.75 38.12,-82.75 38.12,-67.25 38.12,-67.25 38.12,-61.25 44.12,-55.25 50.12,-55.25 50.12,-55.25 99.88,-55.25 99.88,-55.25 105.88,-55.25 111.88,-61.25 111.88,-67.25 111.88,-67.25 111.88,-82.75 111.88,-82.75 111.88,-88.75 105.88,-94.75 99.88,-94.75"/>
<text text-anchor="middle" x="75" y="-77.45" font-family="Arial" font-size="14.00">HDMI 2.1</text>
<text text-anchor="middle" x="75" y="-61.7" font-family="Arial" font-size="14.00">48Gbps</text>
</g>
<!-- hdmi&#45;&gt;dsp2 -->
<g id="edge8" class="edge">
<title>hdmi&#45;&gt;dsp2</title>
<path fill="none" stroke="#606060" d="M112.27,-71.35C142.56,-68.5 186.92,-64.77 225.75,-63.25 291.92,-60.66 308.58,-60.51 374.75,-63.25 402.9,-64.41 434.11,-66.87 460.08,-69.24"/>
<polygon fill="#606060" stroke="#606060" points="459.66,-72.01 467.89,-69.96 460.18,-66.44 459.66,-72.01"/>
<text text-anchor="middle" x="300.25" y="-65.7" font-family="Times New Roman,serif" font-size="14.00">视频流水线</text>
</g>
<!-- usb -->
<g id="node9" class="node">
<title>usb</title>
<path fill="#f0f0f0" stroke="black" d="M122,-152.75C122,-152.75 28,-152.75 28,-152.75 22,-152.75 16,-146.75 16,-140.75 16,-140.75 16,-125.25 16,-125.25 16,-119.25 22,-113.25 28,-113.25 28,-113.25 122,-113.25 122,-113.25 128,-113.25 134,-119.25 134,-125.25 134,-125.25 134,-140.75 134,-140.75 134,-146.75 128,-152.75 122,-152.75"/>
<text text-anchor="middle" x="75" y="-135.45" font-family="Arial" font-size="14.00">USB 3.2 Gen2x1</text>
<text text-anchor="middle" x="75" y="-119.7" font-family="Arial" font-size="14.00">10Gbps</text>
</g>
<!-- usb&#45;&gt;dsp1 -->
<g id="edge9" class="edge">
<title>usb&#45;&gt;dsp1</title>
<path fill="none" stroke="#606060" d="M134.31,-134.1C194.89,-136.08 292.17,-141.65 374.75,-157.25 407.7,-163.47 414.96,-169.11 447,-179 451.43,-180.37 456.01,-181.79 460.62,-183.23"/>
<polygon fill="#606060" stroke="#606060" points="459.55,-185.83 468.02,-185.55 461.22,-180.48 459.55,-185.83"/>
<text text-anchor="middle" x="300.25" y="-159.7" font-family="Times New Roman,serif" font-size="14.00">数据接口</text>
</g>
<!-- usb&#45;&gt;dsp2 -->
<g id="edge10" class="edge">
<title>usb&#45;&gt;dsp2</title>
<path fill="none" stroke="#606060" d="M134.06,-125.36C219,-114.18 376.16,-93.49 460.18,-82.43"/>
<polygon fill="#606060" stroke="#606060" points="460.49,-85.21 468.06,-81.39 459.76,-79.66 460.49,-85.21"/>
<text text-anchor="middle" x="300.25" y="-115.03" font-family="Times New Roman,serif" font-size="14.00">数据接口</text>
</g>
</g>
</svg>
