<?xml version="1.0" encoding="UTF-8" standalone="no"?>
<!DOCTYPE svg PUBLIC "-//W3C//DTD SVG 1.1//EN"
 "http://www.w3.org/Graphics/SVG/1.1/DTD/svg11.dtd">
<!-- Generated by graphviz version 12.2.1 (20241206.2353)
 -->
<!-- Title: fpga_features Pages: 1 -->
<svg width="645pt" height="266pt"
 viewBox="0.00 0.00 645.25 265.75" xmlns="http://www.w3.org/2000/svg" xmlns:xlink="http://www.w3.org/1999/xlink">
<g id="graph0" class="graph" transform="scale(1 1) rotate(0) translate(4 261.75)">
<title>fpga_features</title>
<polygon fill="white" stroke="none" points="-4,4 -4,-261.75 641.25,-261.75 641.25,4 -4,4"/>
<g id="clust1" class="cluster">
<title>cluster_main</title>
<polygon fill="none" stroke="none" points="8,-8 8,-172 629.25,-172 629.25,-8 8,-8"/>
<text text-anchor="middle" x="64.75" y="-15.95" font-family="Times New Roman,serif" font-size="14.00">FPGA核心特性</text>
</g>
<!-- realtime -->
<g id="node1" class="node">
<title>realtime</title>
<path fill="#ebf5fb" stroke="#2e86c1" stroke-width="2" d="M150.25,-137.12C150.25,-137.12 28,-137.12 28,-137.12 22,-137.12 16,-131.12 16,-125.12 16,-125.12 16,-76.88 16,-76.88 16,-70.88 22,-64.88 28,-64.88 28,-64.88 150.25,-64.88 150.25,-64.88 156.25,-64.88 162.25,-70.88 162.25,-76.88 162.25,-76.88 162.25,-125.12 162.25,-125.12 162.25,-131.12 156.25,-137.12 150.25,-137.12"/>
<text text-anchor="start" x="34.94" y="-114.7" font-family="Times New Roman,serif" font-size="14.00" fill="#2e86c1">⚡</text>
<text text-anchor="start" x="74.31" y="-116.83" font-family="Times New Roman,serif" font-weight="bold" font-size="14.00">实时处理</text>
<text text-anchor="start" x="28" y="-94.08" font-family="Times New Roman,serif" font-size="14.00">4K@60fps实时处理</text>
<text text-anchor="start" x="57.62" y="-76.83" font-family="Times New Roman,serif" font-size="14.00">延迟&lt;2ms</text>
</g>
<!-- parallel -->
<g id="node2" class="node">
<title>parallel</title>
<path fill="#eafaf1" stroke="#28b463" stroke-width="2" d="M395.5,-112.38C395.5,-112.38 289,-112.38 289,-112.38 283,-112.38 277,-106.38 277,-100.38 277,-100.38 277,-53.62 277,-53.62 277,-47.62 283,-41.62 289,-41.62 289,-41.62 395.5,-41.62 395.5,-41.62 401.5,-41.62 407.5,-47.62 407.5,-53.62 407.5,-53.62 407.5,-100.38 407.5,-100.38 407.5,-106.38 401.5,-112.38 395.5,-112.38"/>
<text text-anchor="start" x="289" y="-91.08" font-family="Times New Roman,serif" font-size="14.00" fill="#28b463">▨▨</text>
<text text-anchor="start" x="326.5" y="-92.08" font-family="Times New Roman,serif" font-weight="bold" font-size="14.00">并行架构</text>
<text text-anchor="start" x="295" y="-69.33" font-family="Times New Roman,serif" font-size="14.00">多核并行架构</text>
<text text-anchor="start" x="299.12" y="-52.08" font-family="Times New Roman,serif" font-size="14.00">吞吐量↑300%</text>
</g>
<!-- realtime&#45;&gt;parallel -->
<g id="edge1" class="edge">
<title>realtime&#45;&gt;parallel</title>
<path fill="none" stroke="#666666" d="M172.46,-93.13C202.86,-90.23 237.11,-86.95 266.77,-84.12"/>
<polygon fill="#666666" stroke="#666666" points="172.3,-90.33 164.6,-93.88 172.83,-95.91 172.3,-90.33"/>
<polygon fill="#666666" stroke="#666666" points="267.02,-86.91 274.72,-83.36 266.49,-81.33 267.02,-86.91"/>
<text text-anchor="middle" x="219.62" y="-94.31" font-family="Times New Roman,serif" font-size="14.00">数据流水线</text>
</g>
<!-- efficiency -->
<g id="node3" class="node">
<title>efficiency</title>
<path fill="#fbeee6" stroke="#d35400" stroke-width="2" d="M609.25,-138.12C609.25,-138.12 518.5,-138.12 518.5,-138.12 512.5,-138.12 506.5,-132.12 506.5,-126.12 506.5,-126.12 506.5,-77.88 506.5,-77.88 506.5,-71.88 512.5,-65.88 518.5,-65.88 518.5,-65.88 609.25,-65.88 609.25,-65.88 615.25,-65.88 621.25,-71.88 621.25,-77.88 621.25,-77.88 621.25,-126.12 621.25,-126.12 621.25,-132.12 615.25,-138.12 609.25,-138.12"/>
<text text-anchor="start" x="518.5" y="-116.83" font-family="Times New Roman,serif" font-size="14.00" fill="#d35400">♻</text>
<text text-anchor="start" x="540.25" y="-117.83" font-family="Times New Roman,serif" font-weight="bold" font-size="14.00">能效优化</text>
<text text-anchor="start" x="530.88" y="-95.08" font-family="Times New Roman,serif" font-size="14.00">DVFS技术</text>
<text text-anchor="start" x="532" y="-77.83" font-family="Times New Roman,serif" font-size="14.00">功耗↓45%</text>
</g>
<!-- parallel&#45;&gt;efficiency -->
<g id="edge2" class="edge">
<title>parallel&#45;&gt;efficiency</title>
<path fill="none" stroke="#666666" d="M417.45,-85.45C442.94,-88.35 471.3,-91.58 496.16,-94.41"/>
<polygon fill="#666666" stroke="#666666" points="418.02,-82.69 409.76,-84.57 417.39,-88.26 418.02,-82.69"/>
<polygon fill="#666666" stroke="#666666" points="495.73,-97.18 504,-95.3 496.36,-91.61 495.73,-97.18"/>
<text text-anchor="middle" x="457" y="-95.65" font-family="Times New Roman,serif" font-size="14.00">功耗管理</text>
</g>
<!-- efficiency&#45;&gt;realtime -->
<g id="edge3" class="edge">
<title>efficiency&#45;&gt;realtime</title>
<path fill="none" stroke="#666666" d="M496.46,-111.99C493.77,-112.34 491.11,-112.68 488.5,-113 352.53,-129.76 316.47,-126.65 180.25,-112 177.61,-111.72 174.92,-111.42 172.2,-111.12"/>
<polygon fill="#666666" stroke="#666666" points="496.6,-114.79 504.16,-110.95 495.86,-109.24 496.6,-114.79"/>
<polygon fill="#666666" stroke="#666666" points="172.67,-108.35 164.41,-110.24 172.04,-113.92 172.67,-108.35"/>
<text text-anchor="middle" x="342.25" y="-126.78" font-family="Times New Roman,serif" font-size="14.00">时钟同步</text>
</g>
<!-- legend -->
<g id="node4" class="node">
<title>legend</title>
<path fill="white" stroke="none" stroke-width="2" d="M146.5,-257.75C146.5,-257.75 31.75,-257.75 31.75,-257.75 25.75,-257.75 19.75,-251.75 19.75,-245.75 19.75,-245.75 19.75,-192.25 19.75,-192.25 19.75,-186.25 25.75,-180.25 31.75,-180.25 31.75,-180.25 146.5,-180.25 146.5,-180.25 152.5,-180.25 158.5,-186.25 158.5,-192.25 158.5,-192.25 158.5,-245.75 158.5,-245.75 158.5,-251.75 152.5,-257.75 146.5,-257.75"/>
<polygon fill="#ebf5fb" stroke="none" points="29.75,-231.25 29.75,-251.75 48,-251.75 48,-231.25 29.75,-231.25"/>
<text text-anchor="start" x="31.75" y="-236.45" font-family="Times New Roman,serif" font-size="14.00"> </text>
<text text-anchor="start" x="52" y="-236.07" font-family="Times New Roman,serif" font-size="14.00">实时处理模块</text>
<polygon fill="#eafaf1" stroke="none" points="29.75,-208.75 29.75,-229.25 48,-229.25 48,-208.75 29.75,-208.75"/>
<text text-anchor="start" x="31.75" y="-213.95" font-family="Times New Roman,serif" font-size="14.00"> </text>
<text text-anchor="start" x="52" y="-213.57" font-family="Times New Roman,serif" font-size="14.00">并行架构模块</text>
<polygon fill="#fbeee6" stroke="none" points="29.75,-186.25 29.75,-206.75 48,-206.75 48,-186.25 29.75,-186.25"/>
<text text-anchor="start" x="31.75" y="-191.45" font-family="Times New Roman,serif" font-size="14.00"> </text>
<text text-anchor="start" x="52" y="-191.07" font-family="Times New Roman,serif" font-size="14.00">能效优化模块</text>
</g>
</g>
</svg>
